<svg xmlns="http://www.w3.org/2000/svg" viewBox="0 0 20 20" width="20" height="20">
  <rect width="20" height="20" rx="3" fill="#5a6a7a" opacity="0.85"/>
  <path d="M6 10a4 4 0 0 1 4-4" stroke="#fff" stroke-width="1.5" fill="none" stroke-linecap="round"/>
  <path d="M4 10a6 6 0 0 1 6-6" stroke="#fff" stroke-width="1.5" fill="none" stroke-linecap="round" opacity="0.7"/>
  <path d="M8 10a2 2 0 0 1 2-2" stroke="#fff" stroke-width="1.5" fill="none" stroke-linecap="round"/>
  <circle cx="10" cy="10" r="1" fill="#fff"/>
  <path d="M14 10a4 4 0 0 0-4 4" stroke="#fff" stroke-width="1.5" fill="none" stroke-linecap="round"/>
  <path d="M16 10a6 6 0 0 0-6 6" stroke="#fff" stroke-width="1.5" fill="none" stroke-linecap="round" opacity="0.7"/>
  <path d="M12 10a2 2 0 0 0-2 2" stroke="#fff" stroke-width="1.5" fill="none" stroke-linecap="round"/>
</svg>
